<svg width="133" height="37" viewBox="0 0 133 37" fill="none" xmlns="http://www.w3.org/2000/svg">
<path d="M53.6983 20.7992C53.694 19.8767 53.8756 18.9628 54.2322 18.1119C54.5889 17.2611 55.1133 16.4907 55.7742 15.8466C56.4351 15.2026 57.2189 14.6981 58.0791 14.3632C58.9392 14.0283 59.8581 13.8699 60.7808 13.8973C64.086 13.8973 67.1013 15.8715 67.4829 20.0679C67.556 20.6966 67.193 21.0332 66.5609 21.0332H56.3761C56.3031 23.475 58.3222 25.2592 61.1757 25.2592C62.4508 25.2725 63.6985 24.8891 64.7459 24.1623C64.8414 24.0818 64.9521 24.0213 65.0714 23.9843C65.1907 23.9473 65.3162 23.9346 65.4406 23.9468C65.5649 23.9591 65.6855 23.9961 65.7952 24.0557C65.905 24.1153 66.0017 24.1963 66.0796 24.2938L66.2698 24.4984C66.6943 24.9515 66.6943 25.4927 66.0796 25.9899C64.676 27.088 62.9327 27.6618 61.1507 27.6123C56.5223 27.6303 53.6983 24.5592 53.6983 20.7992ZM64.79 19.0446C64.1023 16.7048 62.2734 16.2053 60.8243 16.2053C59.9065 16.1556 58.9974 16.4057 58.2345 16.918C57.4715 17.4302 56.8962 18.1767 56.5953 19.0446H64.79Z" fill="#5575E5"/>
<path d="M68.7853 26.385V9.30573C68.7744 9.17687 68.7919 9.04717 68.8368 8.92587C68.8817 8.80457 68.9528 8.69464 69.0451 8.60391C69.1373 8.51318 69.2484 8.44388 69.3705 8.40094C69.4926 8.35799 69.6226 8.34245 69.7514 8.35543H70.5417C70.67 8.34162 70.7997 8.3567 70.9214 8.39957C71.0431 8.44244 71.1536 8.51201 71.2448 8.60317C71.336 8.69433 71.4057 8.80476 71.4486 8.92634C71.4915 9.04792 71.5065 9.17756 71.4927 9.30573V26.385C71.5065 26.5132 71.4915 26.6428 71.4486 26.7644C71.4057 26.886 71.336 26.9964 71.2448 27.0875C71.1536 27.1787 71.0431 27.2483 70.9214 27.2911C70.7997 27.334 70.67 27.3491 70.5417 27.3353H69.7514C69.6224 27.3494 69.4918 27.3347 69.3692 27.2922C69.2466 27.2497 69.135 27.1804 69.0425 27.0894C68.95 26.9984 68.8789 26.888 68.8345 26.7662C68.79 26.6443 68.7732 26.5141 68.7853 26.385Z" fill="#5575E5"/>
<path d="M72.6773 20.7992C72.673 19.8767 72.8546 18.9628 73.2112 18.1119C73.5679 17.2611 74.0923 16.4907 74.7532 15.8466C75.4141 15.2026 76.1979 14.6981 77.0581 14.3632C77.9183 14.0283 78.8371 13.8699 79.7598 13.8973C83.065 13.8973 86.0803 15.8715 86.4619 20.0679C86.5349 20.6966 86.172 21.0332 85.5399 21.0332H75.3551C75.2821 23.475 77.3012 25.2592 80.1547 25.2592C81.4298 25.2725 82.6775 24.8891 83.7249 24.1623C83.8205 24.0818 83.9311 24.0213 84.0504 23.9843C84.1697 23.9473 84.2952 23.9346 84.4195 23.9468C84.5439 23.9591 84.6644 23.9961 84.7742 24.0557C84.884 24.1153 84.9807 24.1963 85.0586 24.2938L85.2488 24.4984C85.6733 24.9515 85.6733 25.4927 85.0586 25.9899C83.655 27.088 81.9117 27.6618 80.1298 27.6123C75.5013 27.6303 72.6773 24.5592 72.6773 20.7992ZM83.7841 19.0446C83.0964 16.7048 81.2675 16.2053 79.8184 16.2053C78.9006 16.1556 77.9915 16.4057 77.2285 16.918C76.4656 17.4302 75.8902 18.1767 75.5894 19.0446H83.7841Z" fill="#5575E5"/>
<path d="M87.3253 20.9016C87.3253 17.0413 89.9741 13.8972 94.7296 13.8972C96.125 13.8937 97.4953 14.2675 98.6953 14.9791C98.8174 15.0346 98.9245 15.1185 99.0076 15.2238C99.0908 15.329 99.1476 15.4526 99.1733 15.5841C99.1991 15.7157 99.193 15.8515 99.1557 15.9803C99.1183 16.1091 99.0508 16.2271 98.9586 16.3246L98.7539 16.5876C98.6868 16.6961 98.598 16.7895 98.4932 16.8621C98.3883 16.9347 98.2696 16.985 98.1444 17.0096C98.0193 17.0343 97.8903 17.033 97.7657 17.0056C97.6411 16.9783 97.5235 16.9255 97.4202 16.8507C96.6244 16.4739 95.7546 16.2791 94.874 16.2805C92.0936 16.2805 90.0449 18.1232 90.0449 20.7695C90.0449 23.4159 92.0936 25.2892 94.874 25.2892C95.7537 25.2829 96.6219 25.0885 97.4202 24.719C97.522 24.6402 97.6396 24.5841 97.765 24.5545C97.8903 24.5249 98.0206 24.5225 98.1469 24.5474C98.2733 24.5724 98.3929 24.624 98.4976 24.699C98.6023 24.774 98.6896 24.8705 98.7539 24.9821L98.9441 25.2452C99.31 25.7423 99.1343 26.371 98.2854 26.7952C97.1939 27.3694 95.9776 27.6658 94.7441 27.658C90.0762 27.6302 87.3253 24.6593 87.3253 20.9016Z" fill="#5575E5"/>
<path d="M102.207 23.168V16.2957H100.597C100.524 16.3012 100.451 16.2904 100.382 16.264C100.314 16.2376 100.252 16.1963 100.202 16.143C100.151 16.0898 100.113 16.026 100.091 15.9563C100.068 15.8866 100.061 15.8127 100.071 15.74V14.7161C100.063 14.6452 100.071 14.5734 100.095 14.506C100.119 14.4387 100.157 14.3775 100.208 14.3271C100.258 14.2766 100.32 14.2381 100.387 14.2143C100.454 14.1906 100.526 14.1823 100.597 14.19H102.251L102.72 11.1769C102.723 11.0718 102.748 10.9685 102.792 10.8731C102.836 10.7777 102.899 10.692 102.976 10.6212C103.054 10.5503 103.145 10.4958 103.244 10.4606C103.343 10.4255 103.448 10.4105 103.553 10.4166H104.11C104.218 10.4096 104.326 10.4262 104.427 10.4653C104.528 10.5043 104.62 10.5649 104.695 10.6429C104.77 10.7208 104.827 10.8142 104.863 10.9165C104.898 11.0188 104.911 11.1276 104.9 11.2354V14.1906H108.5C108.571 14.1829 108.643 14.1912 108.71 14.2149C108.777 14.2386 108.839 14.2772 108.889 14.3276C108.94 14.3781 108.978 14.4393 109.002 14.5066C109.026 14.5739 109.034 14.6457 109.026 14.7167V15.74C109.035 15.8125 109.027 15.8858 109.004 15.955C108.981 16.0241 108.943 16.0874 108.892 16.1403C108.842 16.1932 108.781 16.2346 108.713 16.2614C108.645 16.2883 108.573 16.3 108.5 16.2957H104.9V23.3291C104.9 24.7475 105.588 25.3032 106.422 25.3032C106.62 25.3232 106.819 25.3012 107.007 25.2387C107.196 25.1763 107.369 25.0748 107.515 24.9409C107.662 24.807 107.778 24.6437 107.857 24.4617C107.936 24.2797 107.976 24.0831 107.973 23.8847C107.978 23.7171 107.958 23.5497 107.915 23.3876C107.857 23.0219 108.018 22.7879 108.384 22.7879H109.598C109.669 22.7769 109.741 22.7804 109.81 22.7984C109.879 22.8163 109.943 22.8482 110 22.8921C110.056 22.9359 110.102 22.9909 110.137 23.0535C110.171 23.1161 110.192 23.185 110.198 23.256C110.264 23.5736 110.299 23.897 110.301 24.2214C110.301 26.1956 108.881 27.6286 106.365 27.6286C104.285 27.6268 102.207 26.5462 102.207 23.168Z" fill="#5575E5"/>
<path d="M111.601 26.385V15.1257C111.59 14.9969 111.608 14.8672 111.653 14.7459C111.698 14.6246 111.769 14.5146 111.861 14.4239C111.953 14.3332 112.065 14.2639 112.187 14.2209C112.309 14.178 112.439 14.1625 112.568 14.1754H113.358C113.486 14.1616 113.616 14.1767 113.738 14.2196C113.859 14.2624 113.97 14.332 114.061 14.4232C114.152 14.5143 114.222 14.6248 114.265 14.7463C114.308 14.8679 114.323 14.9976 114.309 15.1257V17.1144C114.748 15.0087 116.255 13.8828 117.821 13.8828L118.391 13.9118C118.947 13.9848 119.02 14.4379 119.02 14.9646V15.7255C119.02 16.3837 118.757 16.6468 118.318 16.5442C118.088 16.4911 117.852 16.4665 117.616 16.4712C116.665 16.4712 114.311 16.9394 114.311 22.3202V26.385C114.324 26.5132 114.309 26.6428 114.266 26.7644C114.224 26.886 114.154 26.9964 114.063 27.0876C113.971 27.1787 113.861 27.2483 113.739 27.2912C113.618 27.334 113.488 27.3491 113.36 27.3353H112.569C112.44 27.3498 112.309 27.3354 112.186 27.293C112.063 27.2507 111.952 27.1815 111.859 27.0904C111.766 26.9994 111.695 26.8888 111.65 26.7668C111.606 26.6447 111.589 26.5143 111.601 26.385Z" fill="#5575E5"/>
<path d="M119.079 20.7551C119.079 16.9823 121.684 13.9118 125.591 13.9118C126.509 13.8747 127.422 14.0712 128.243 14.483C129.065 14.8948 129.768 15.5083 130.288 16.2661V15.1402C130.277 15.0113 130.294 14.8817 130.339 14.7603C130.384 14.639 130.455 14.5291 130.547 14.4384C130.64 14.3477 130.751 14.2784 130.873 14.2354C130.995 14.1925 131.125 14.1769 131.254 14.1899H132.044C132.172 14.1761 132.302 14.1912 132.424 14.2341C132.545 14.2769 132.656 14.3465 132.747 14.4377C132.838 14.5288 132.908 14.6392 132.951 14.7608C132.994 14.8824 133.009 15.012 132.995 15.1402V26.3995C133.009 26.5277 132.994 26.6573 132.951 26.7789C132.908 26.9005 132.838 27.0109 132.747 27.102C132.656 27.1932 132.545 27.2628 132.424 27.3056C132.302 27.3485 132.172 27.3636 132.044 27.3498H131.256C131.127 27.3639 130.996 27.3492 130.874 27.3067C130.751 27.2642 130.64 27.1949 130.547 27.1039C130.455 27.0129 130.383 26.9025 130.339 26.7807C130.295 26.6588 130.278 26.5286 130.29 26.3995V25.2736C129.771 26.0314 129.067 26.6449 128.246 27.0567C127.424 27.4685 126.511 27.665 125.593 27.6279C121.683 27.6279 119.079 24.5279 119.079 20.7551ZM130.346 20.7551C130.317 18.1522 128.561 16.2354 125.956 16.2354C123.307 16.2354 121.786 18.3115 121.786 20.7551C121.786 23.2264 123.308 25.2748 125.956 25.2748C128.561 25.2591 130.317 23.3435 130.346 20.7551Z" fill="#5575E5"/>
<path d="M50.6884 8.86771L29.5291 25.2447C29.4329 25.3264 29.3213 25.3879 29.2008 25.4256C29.0804 25.4633 28.9536 25.4764 28.828 25.4641C28.7023 25.4519 28.5805 25.4145 28.4696 25.3542C28.3587 25.2939 28.2611 25.2119 28.1826 25.1131L23.6173 19.3667C23.4971 19.2146 23.3326 19.1034 23.1466 19.0484C22.9605 18.9934 22.762 18.9973 22.5782 19.0596L0.409369 26.5171C0.337408 26.5416 0.258957 26.5388 0.188958 26.5092C0.118959 26.4795 0.0623017 26.4252 0.029778 26.3566C-0.00274577 26.2879 -0.00886406 26.2097 0.0125884 26.1369C0.0340408 26.064 0.0815652 26.0016 0.14611 25.9614L23.9977 11.0899C24.195 10.9645 24.4321 10.9176 24.6623 10.9582C24.8926 10.9989 25.0992 11.1242 25.2416 11.3095L29.5291 16.8954C29.6647 17.0708 29.8575 17.1932 30.0741 17.2412C30.2906 17.2893 30.5172 17.26 30.7143 17.1585L50.3521 8.37054C50.418 8.33432 50.495 8.32401 50.5681 8.34164C50.6412 8.35926 50.7051 8.40354 50.7472 8.4658C50.7893 8.52806 50.8066 8.60379 50.7958 8.67814C50.7849 8.7525 50.7466 8.82011 50.6884 8.86771ZM7.9888 18.9275L14.0774 15.1402C14.2974 15.0064 14.4633 14.7994 14.5459 14.5556C15.2888 12.4514 16.6108 10.5994 18.3601 9.21259C20.1093 7.82576 22.2147 6.9604 24.4341 6.71598C26.6536 6.47157 28.897 6.85804 30.9065 7.83095C32.9159 8.80386 34.6098 10.3237 35.7934 12.2158C35.8954 12.3729 36.0503 12.4885 36.2301 12.5416C36.4099 12.5948 36.6028 12.5819 36.7739 12.5055L41.5004 10.3853C41.591 10.3436 41.6722 10.2839 41.7387 10.2096C41.8053 10.1354 41.8559 10.0483 41.8874 9.95373C41.919 9.85916 41.9307 9.75914 41.922 9.65984C41.9133 9.56055 41.8843 9.4641 41.8367 9.37646C39.8215 5.82259 36.6856 3.0354 32.9184 1.44993C29.1512 -0.13554 24.9647 -0.430075 21.0123 0.612294C17.0599 1.65466 13.5641 3.97528 11.0705 7.21195C8.57687 10.4486 7.22575 14.4192 7.22801 18.5039C7.22752 18.5929 7.25093 18.6803 7.2958 18.7571C7.34066 18.8339 7.40534 18.8972 7.48308 18.9405C7.56082 18.9838 7.64876 19.0054 7.73772 19.0031C7.82668 19.0008 7.91339 18.9747 7.9888 18.9275ZM42.3169 24.879H36.3187C36.1434 24.8801 35.9708 24.9231 35.8155 25.0046C35.6602 25.0861 35.5268 25.2036 35.4263 25.3472C34.2681 26.9862 32.7123 28.3045 30.9048 29.1784C29.0973 30.0523 27.0974 30.4532 25.0925 30.3436C23.0875 30.2339 21.1433 29.6173 19.4421 28.5516C17.7408 27.4858 16.3382 26.0058 15.3659 24.2503C15.2782 24.0923 15.1384 23.9695 14.9703 23.9028C14.8022 23.8361 14.6162 23.8298 14.4439 23.8847L9.43962 25.5651C9.35138 25.595 9.27036 25.643 9.20178 25.7061C9.1332 25.7691 9.07856 25.8458 9.04138 25.9312C9.0042 26.0166 8.98529 26.1088 8.98586 26.2019C8.98644 26.2951 9.00649 26.387 9.04473 26.4719C10.5844 29.6961 13.0256 32.4055 16.0733 34.2728C19.1211 36.1401 22.6448 37.0852 26.2187 36.994C29.7925 36.9027 33.2633 35.779 36.2116 33.7586C39.16 31.7382 41.4595 28.9077 42.8324 25.6091C42.8624 25.5267 42.872 25.4383 42.8604 25.3514C42.8489 25.2645 42.8164 25.1816 42.7659 25.1099C42.7154 25.0382 42.6483 24.9798 42.5703 24.9396C42.4923 24.8994 42.4058 24.8786 42.318 24.879H42.3169Z" fill="#5575E5"/>
</svg>
