<svg width="24" height="24" viewBox="0 0 24 24" fill="none" xmlns="http://www.w3.org/2000/svg">
<path d="M13.5699 16.39C11.8442 16.0987 10.2408 15.3106 8.95609 14.1221C7.67136 12.9336 6.76104 11.3963 6.33656 9.69835C5.91209 8.00044 5.99187 6.21561 6.56616 4.56235C7.14044 2.90908 8.1843 1.45914 9.56995 0.39C9.60108 0.357869 9.62217 0.317355 9.63063 0.27342C9.63909 0.229485 9.63455 0.184037 9.61756 0.142644C9.60058 0.10125 9.5719 0.0657086 9.53502 0.0403724C9.49814 0.0150362 9.45468 0.00100587 9.40995 0C7.50397 0.269696 5.70289 1.03753 4.18858 2.22596C2.67427 3.41439 1.50035 4.98134 0.78535 6.76859C0.0703493 8.55584 -0.160413 10.5001 0.116364 12.4051C0.393141 14.31 1.16766 16.1083 2.36171 17.6181C3.55576 19.128 5.12706 20.2961 6.91696 21.0045C8.70685 21.7128 10.652 21.9364 12.5559 21.6525C14.4598 21.3686 16.2551 20.5875 17.7606 19.3878C19.266 18.1882 20.4282 16.6125 21.1299 14.82C21.1483 14.7736 21.1511 14.7225 21.1378 14.6744C21.1246 14.6263 21.0961 14.5838 21.0566 14.5533C21.0171 14.5228 20.9687 14.506 20.9188 14.5054C20.8689 14.5048 20.8202 14.5205 20.7799 14.55C19.7788 15.353 18.6175 15.9327 17.374 16.25C16.1305 16.5674 14.8334 16.6151 13.5699 16.39V16.39Z" fill="#C8C8D0"/>
</svg>
