<svg width="28" height="20" viewBox="0 0 28 20" fill="none" xmlns="http://www.w3.org/2000/svg">
<path d="M0.115234 2.23879H27.8845C27.6003 1.41755 26.8207 0.827637 25.9029 0.827637H2.09689C1.17902 0.827637 0.399445 1.41755 0.115234 2.23879Z" fill="#C8C8D1"/>
<path d="M28 6.47217H0V7.88327H28V6.47217Z" fill="#C8C8D1"/>
<path d="M28 3.64966H0V5.06076H28V3.64966Z" fill="#C8C8D1"/>
<path d="M0 10.2228C0 10.4894 0.21618 10.7056 0.482781 10.7056H28V9.29443H0V10.2228Z" fill="#C8C8D1"/>
<path d="M28 14.9395H0V16.3506H28V14.9395Z" fill="#C8C8D1"/>
<path d="M27.8846 17.7612H0.115234C0.399445 18.5825 1.17907 19.1724 2.09689 19.1724H25.9029C26.8208 19.1724 27.6003 18.5825 27.8846 17.7612Z" fill="#C8C8D1"/>
<path d="M28 12.1169H0V13.528H28V12.1169Z" fill="#C8C8D1"/>
</svg>
