<svg width="28" height="28" viewBox="0 0 28 28" fill="none" xmlns="http://www.w3.org/2000/svg">
<path d="M25.903 4.82764H2.09699C0.93882 4.82764 0 5.76646 0 6.92463V21.0755C0 22.2336 0.93882 23.1725 2.09699 23.1725H25.903C27.0611 23.1725 28 22.2337 28 21.0755V6.92463C28 5.76646 27.0612 4.82764 25.903 4.82764Z" fill="#F5F5F5"/>
<path d="M0.115234 6.23879H27.8845C27.6003 5.41755 26.8207 4.82764 25.9029 4.82764H2.09689C1.17902 4.82764 0.399445 5.41755 0.115234 6.23879Z" fill="#C8C8D1"/>
<path d="M28 10.4722H0V11.8833H28V10.4722Z" fill="#C8C8D1"/>
<path d="M28 7.64966H0V9.06076H28V7.64966Z" fill="#C8C8D1"/>
<path d="M0 14.2228C0 14.4894 0.21618 14.7056 0.482781 14.7056H28V13.2944H0V14.2228Z" fill="#C8C8D1"/>
<path d="M28 18.9395H0V20.3506H28V18.9395Z" fill="#C8C8D1"/>
<path d="M27.8846 21.7612H0.115234C0.399445 22.5825 1.17907 23.1724 2.09689 23.1724H25.9029C26.8208 23.1724 27.6003 22.5825 27.8846 21.7612Z" fill="#C8C8D1"/>
<path d="M28 16.1169H0V17.528H28V16.1169Z" fill="#C8C8D1"/>
<path d="M0.482781 14.7057H12.5518C12.8184 14.7057 13.0345 14.4895 13.0345 14.2229V5.31042C13.0345 5.04376 12.8184 4.82764 12.5518 4.82764H2.09699C0.93882 4.82769 0 5.76651 0 6.92468V14.2229C0 14.4896 0.21618 14.7057 0.482781 14.7057Z" fill="#D2D2D9"/>
<path d="M1.35575 5.93591L1.46261 6.25638L1.80041 6.25895C1.84416 6.25933 1.86226 6.31511 1.8271 6.34109L1.55536 6.54174L1.65729 6.86379C1.67053 6.90546 1.62301 6.94003 1.5874 6.91454L1.3126 6.71816L1.03779 6.9146C1.00219 6.94008 0.954779 6.90552 0.967904 6.86385L1.06984 6.54179L0.7981 6.34114C0.762936 6.31511 0.781037 6.25933 0.824787 6.259L1.16259 6.25643L1.26945 5.93596C1.28323 5.8944 1.34186 5.8944 1.35575 5.93591Z" fill="#F5F5F5"/>
<path d="M1.35575 7.61214L1.46261 7.93261L1.80041 7.93518C1.84416 7.93556 1.86226 7.99129 1.8271 8.01732L1.55536 8.21802L1.65729 8.54008C1.67053 8.58175 1.62301 8.61631 1.5874 8.59083L1.3126 8.39445L1.03779 8.59088C1.00219 8.61631 0.954779 8.58181 0.967904 8.54013L1.06984 8.21808L0.7981 8.01737C0.762936 7.99134 0.781037 7.93562 0.824787 7.93523L1.16259 7.93266L1.26945 7.61219C1.28323 7.57068 1.34186 7.57068 1.35575 7.61214Z" fill="#F5F5F5"/>
<path d="M1.35575 9.28845L1.46261 9.60892L1.80041 9.61149C1.84416 9.61187 1.86226 9.6676 1.8271 9.69363L1.55536 9.89433L1.65729 10.2164C1.67053 10.2581 1.62301 10.2926 1.5874 10.2671L1.3126 10.0708L1.03779 10.2672C1.00219 10.2926 0.954779 10.2582 0.967904 10.2164L1.06984 9.89439L0.7981 9.69368C0.762936 9.66765 0.781037 9.61193 0.824787 9.61154L1.16259 9.60897L1.26945 9.2885C1.28323 9.24694 1.34186 9.24694 1.35575 9.28845Z" fill="#F5F5F5"/>
<path d="M1.35575 10.965L1.46261 11.2854L1.80041 11.288C1.84416 11.2884 1.86226 11.3442 1.8271 11.3701L1.55536 11.5708L1.65729 11.8929C1.67053 11.9346 1.62301 11.9691 1.5874 11.9436L1.3126 11.7473L1.03779 11.9437C1.00219 11.9691 0.954779 11.9346 0.967904 11.893L1.06984 11.5709L0.7981 11.3702C0.762936 11.3443 0.781037 11.2884 0.824787 11.2881L1.16259 11.2855L1.26945 10.965C1.28323 10.9235 1.34186 10.9235 1.35575 10.965Z" fill="#F5F5F5"/>
<path d="M1.35575 12.6412L1.46261 12.9617L1.80041 12.9642C1.84416 12.9646 1.86226 13.0203 1.8271 13.0464L1.55536 13.2471L1.65729 13.5691C1.67053 13.6108 1.62301 13.6454 1.5874 13.6199L1.3126 13.4235L1.03779 13.6199C1.00219 13.6454 0.954779 13.6109 0.967904 13.5692L1.06984 13.2471L0.7981 13.0464C0.762936 13.0204 0.781037 12.9647 0.824787 12.9643L1.16259 12.9617L1.26945 12.6412C1.28323 12.5997 1.34186 12.5997 1.35575 12.6412Z" fill="#F5F5F5"/>
<path d="M2.65702 6.75765L2.76388 7.07812L3.10168 7.08069C3.14543 7.08107 3.16353 7.13686 3.12837 7.16283L2.85663 7.36354L2.95856 7.68559C2.9718 7.72726 2.92428 7.76183 2.88867 7.73634L2.61387 7.5399L2.33906 7.73634C2.30346 7.76177 2.25605 7.72726 2.26917 7.68559L2.37111 7.36354L2.09937 7.16283C2.06421 7.1368 2.08231 7.08107 2.12606 7.08069L2.46386 7.07812L2.57072 6.75765C2.5845 6.7162 2.64318 6.7162 2.65702 6.75765Z" fill="#F5F5F5"/>
<path d="M2.65702 8.43396L2.76388 8.75443L3.10168 8.757C3.14543 8.75739 3.16353 8.81317 3.12837 8.83914L2.85663 9.03985L2.95856 9.3619C2.9718 9.40357 2.92428 9.43813 2.88867 9.41265L2.61387 9.21621L2.33906 9.41265C2.30346 9.43808 2.25605 9.40363 2.26917 9.3619L2.37111 9.03985L2.09937 8.83914C2.06421 8.81322 2.08231 8.75739 2.12606 8.757L2.46386 8.75443L2.57072 8.43396C2.5845 8.39246 2.64318 8.39246 2.65702 8.43396Z" fill="#F5F5F5"/>
<path d="M2.65702 10.1105L2.76388 10.4309L3.10168 10.4335C3.14543 10.4339 3.16353 10.4896 3.12837 10.5157L2.85663 10.7164L2.95856 11.0384C2.9718 11.0801 2.92428 11.1146 2.88867 11.0892L2.61387 10.8927L2.33906 11.0892C2.30346 11.1146 2.25605 11.0801 2.26917 11.0384L2.37111 10.7164L2.09937 10.5157C2.06421 10.4896 2.08231 10.4339 2.12606 10.4335L2.46386 10.4309L2.57072 10.1105C2.5845 10.069 2.64318 10.069 2.65702 10.1105Z" fill="#F5F5F5"/>
<path d="M2.65702 11.7867L2.76388 12.1072L3.10168 12.1097C3.14543 12.1101 3.16353 12.1659 3.12837 12.1919L2.85663 12.3926L2.95856 12.7146C2.9718 12.7563 2.92428 12.7909 2.88867 12.7654L2.61387 12.569L2.33906 12.7654C2.30346 12.7909 2.25605 12.7563 2.26917 12.7146L2.37111 12.3926L2.09937 12.1919C2.06421 12.1659 2.08231 12.1101 2.12606 12.1097L2.46386 12.1072L2.57072 11.7867C2.5845 11.7453 2.64318 11.7453 2.65702 11.7867Z" fill="#F5F5F5"/>
<path d="M3.95804 5.93567L4.0649 6.25614L4.40271 6.25871C4.44646 6.25909 4.46456 6.31487 4.42939 6.34085L4.15765 6.5415L4.25959 6.86355C4.27282 6.90523 4.2253 6.93979 4.1897 6.9143L3.91489 6.71787L3.64009 6.9143C3.60449 6.93979 3.55707 6.90523 3.5702 6.86355L3.67214 6.5415L3.40039 6.34085C3.36523 6.31482 3.38333 6.25904 3.42708 6.25871L3.76489 6.25614L3.87175 5.93567C3.88553 5.89416 3.94421 5.89416 3.95804 5.93567Z" fill="#F5F5F5"/>
<path d="M3.95804 7.61214L4.0649 7.93261L4.40271 7.93518C4.44646 7.93557 4.46456 7.99129 4.42939 8.01732L4.15765 8.21803L4.25959 8.54008C4.27282 8.58175 4.2253 8.61632 4.1897 8.59083L3.91489 8.39439L3.64009 8.59083C3.60449 8.61626 3.55707 8.58175 3.5702 8.54008L3.67214 8.21803L3.40039 8.01732C3.36523 7.99129 3.38333 7.93557 3.42708 7.93518L3.76489 7.93261L3.87175 7.61214C3.88553 7.57069 3.94421 7.57069 3.95804 7.61214Z" fill="#F5F5F5"/>
<path d="M3.95804 9.28846L4.0649 9.60892L4.40271 9.61149C4.44646 9.61188 4.46456 9.6676 4.42939 9.69364L4.15765 9.89434L4.25959 10.2164C4.27282 10.2581 4.2253 10.2926 4.1897 10.2671L3.91489 10.0707L3.64009 10.2671C3.60449 10.2926 3.55707 10.2581 3.5702 10.2164L3.67214 9.89434L3.40039 9.69364C3.36523 9.6676 3.38333 9.61188 3.42708 9.61149L3.76489 9.60892L3.87175 9.28846C3.88553 9.24695 3.94421 9.24695 3.95804 9.28846Z" fill="#F5F5F5"/>
<path d="M3.95804 10.965L4.0649 11.2854L4.40271 11.288C4.44646 11.2884 4.46456 11.3442 4.42939 11.3701L4.15765 11.5709L4.25959 11.8929C4.27282 11.9346 4.2253 11.9691 4.1897 11.9437L3.91489 11.7472L3.64009 11.9437C3.60449 11.9691 3.55707 11.9346 3.5702 11.8929L3.67214 11.5709L3.40039 11.3701C3.36523 11.3442 3.38333 11.2884 3.42708 11.288L3.76489 11.2854L3.87175 10.965C3.88553 10.9235 3.94421 10.9235 3.95804 10.965Z" fill="#F5F5F5"/>
<path d="M3.95804 12.6412L4.0649 12.9617L4.40271 12.9642C4.44646 12.9646 4.46456 13.0203 4.42939 13.0464L4.15765 13.2471L4.25959 13.5691C4.27282 13.6108 4.2253 13.6454 4.1897 13.6199L3.91489 13.4234L3.64009 13.6199C3.60449 13.6453 3.55707 13.6108 3.5702 13.5691L3.67214 13.2471L3.40039 13.0464C3.36523 13.0203 3.38333 12.9646 3.42708 12.9642L3.76489 12.9617L3.87175 12.6412C3.88553 12.5997 3.94421 12.5997 3.95804 12.6412Z" fill="#F5F5F5"/>
<path d="M5.25931 6.75765L5.36617 7.07812L5.70398 7.08069C5.74773 7.08107 5.76583 7.13686 5.73067 7.16283L5.45892 7.36354L5.56086 7.68559C5.57409 7.72726 5.52657 7.76183 5.49097 7.73634L5.21616 7.5399L4.94136 7.73634C4.90576 7.76177 4.85834 7.72726 4.87147 7.68559L4.97341 7.36354L4.70166 7.16283C4.6665 7.1368 4.6846 7.08107 4.72835 7.08069L5.06616 7.07812L5.17302 6.75765C5.18674 6.7162 5.24548 6.7162 5.25931 6.75765Z" fill="#F5F5F5"/>
<path d="M5.25931 8.43396L5.36617 8.75443L5.70398 8.757C5.74773 8.75739 5.76583 8.81317 5.73067 8.83914L5.45892 9.03985L5.56086 9.3619C5.57409 9.40357 5.52657 9.43813 5.49097 9.41265L5.21616 9.21621L4.94136 9.41265C4.90576 9.43808 4.85834 9.40363 4.87147 9.3619L4.97341 9.03985L4.70166 8.83914C4.6665 8.81322 4.6846 8.75739 4.72835 8.757L5.06616 8.75443L5.17302 8.43396C5.18674 8.39246 5.24548 8.39246 5.25931 8.43396Z" fill="#F5F5F5"/>
<path d="M5.25931 10.1105L5.36617 10.4309L5.70398 10.4335C5.74773 10.4339 5.76583 10.4896 5.73067 10.5157L5.45892 10.7164L5.56086 11.0384C5.57409 11.0801 5.52657 11.1146 5.49097 11.0892L5.21616 10.8927L4.94136 11.0892C4.90576 11.1146 4.85834 11.0801 4.87147 11.0384L4.97341 10.7164L4.70166 10.5157C4.6665 10.4896 4.6846 10.4339 4.72835 10.4335L5.06616 10.4309L5.17302 10.1105C5.18674 10.069 5.24548 10.069 5.25931 10.1105Z" fill="#F5F5F5"/>
<path d="M5.25931 11.7867L5.36617 12.1072L5.70398 12.1097C5.74773 12.1101 5.76583 12.1659 5.73067 12.1919L5.45892 12.3926L5.56086 12.7146C5.57409 12.7563 5.52657 12.7909 5.49097 12.7654L5.21616 12.569L4.94136 12.7654C4.90576 12.7909 4.85834 12.7563 4.87147 12.7146L4.97341 12.3926L4.70166 12.1919C4.6665 12.1659 4.6846 12.1101 4.72835 12.1097L5.06616 12.1072L5.17302 11.7867C5.18674 11.7453 5.24548 11.7453 5.25931 11.7867Z" fill="#F5F5F5"/>
<path d="M6.56064 5.93567L6.6675 6.25613L7.0053 6.2587C7.04905 6.25909 7.06715 6.31487 7.03199 6.34084L6.76024 6.54149L6.86218 6.86355C6.87542 6.90522 6.82789 6.93978 6.79229 6.9143L6.51743 6.71791L6.24263 6.91435C6.20703 6.93984 6.15961 6.90527 6.17274 6.8636L6.27468 6.54155L6.00293 6.3409C5.96777 6.31487 5.98587 6.25909 6.02962 6.25876L6.36743 6.25619L6.47428 5.93572C6.48812 5.89416 6.5468 5.89416 6.56064 5.93567Z" fill="#F5F5F5"/>
<path d="M6.56064 7.61214L6.6675 7.93261L7.0053 7.93518C7.04905 7.93557 7.06715 7.99129 7.03199 8.01732L6.76024 8.21803L6.86218 8.54008C6.87542 8.58175 6.82789 8.61632 6.79229 8.59083L6.51743 8.39439L6.24263 8.59083C6.20703 8.61626 6.15961 8.58175 6.17274 8.54008L6.27468 8.21803L6.00293 8.01732C5.96777 7.99129 5.98587 7.93557 6.02962 7.93518L6.36743 7.93261L6.47428 7.61214C6.48812 7.57069 6.5468 7.57069 6.56064 7.61214Z" fill="#F5F5F5"/>
<path d="M6.56064 9.28846L6.6675 9.60893L7.0053 9.6115C7.04905 9.61188 7.06715 9.66761 7.03199 9.69364L6.76024 9.89434L6.86218 10.2164C6.87542 10.2581 6.82789 10.2926 6.79229 10.2671L6.51743 10.0707L6.24263 10.2671C6.20703 10.2925 6.15961 10.258 6.17274 10.2163L6.27468 9.89429L6.00293 9.69359C5.96777 9.66756 5.98587 9.61183 6.02962 9.61145L6.36743 9.60888L6.47428 9.28841C6.48812 9.24695 6.5468 9.24695 6.56064 9.28846Z" fill="#F5F5F5"/>
<path d="M6.56064 10.965L6.6675 11.2854L7.0053 11.288C7.04905 11.2884 7.06715 11.3442 7.03199 11.3701L6.76024 11.5709L6.86218 11.8929C6.87542 11.9346 6.82789 11.9691 6.79229 11.9437L6.51743 11.7472L6.24263 11.9437C6.20703 11.9691 6.15961 11.9346 6.17274 11.8929L6.27468 11.5709L6.00293 11.3701C5.96777 11.3442 5.98587 11.2884 6.02962 11.288L6.36743 11.2854L6.47428 10.965C6.48812 10.9235 6.5468 10.9235 6.56064 10.965Z" fill="#F5F5F5"/>
<path d="M6.56064 12.6412L6.6675 12.9617L7.0053 12.9642C7.04905 12.9646 7.06715 13.0203 7.03199 13.0464L6.76024 13.2471L6.86218 13.5691C6.87542 13.6108 6.82789 13.6454 6.79229 13.6199L6.51743 13.4234L6.24263 13.6199C6.20703 13.6453 6.15961 13.6108 6.17274 13.5691L6.27468 13.2471L6.00293 13.0464C5.96777 13.0203 5.98587 12.9646 6.02962 12.9642L6.36743 12.9617L6.47428 12.6412C6.48812 12.5997 6.5468 12.5997 6.56064 12.6412Z" fill="#F5F5F5"/>
<path d="M7.86161 6.75765L7.96847 7.07812L8.30627 7.08069C8.35002 7.08107 8.36813 7.13686 8.33296 7.16283L8.06122 7.36354L8.16316 7.68559C8.17639 7.72726 8.12887 7.76183 8.09327 7.73634L7.81846 7.5399L7.54365 7.73634C7.50805 7.76177 7.46064 7.72726 7.47376 7.68559L7.5757 7.36354L7.30396 7.16283C7.26879 7.1368 7.2869 7.08107 7.33065 7.08069L7.66845 7.07812L7.77531 6.75765C7.78915 6.7162 7.84777 6.7162 7.86161 6.75765Z" fill="#F5F5F5"/>
<path d="M7.86161 8.43396L7.96847 8.75443L8.30627 8.757C8.35002 8.75739 8.36813 8.81317 8.33296 8.83914L8.06122 9.03985L8.16316 9.3619C8.17639 9.40357 8.12887 9.43813 8.09327 9.41265L7.81846 9.21621L7.54365 9.41265C7.50805 9.43808 7.46064 9.40363 7.47376 9.3619L7.5757 9.03985L7.30396 8.83914C7.26879 8.81322 7.2869 8.75739 7.33065 8.757L7.66845 8.75443L7.77531 8.43396C7.78915 8.39246 7.84777 8.39246 7.86161 8.43396Z" fill="#F5F5F5"/>
<path d="M7.86161 10.1105L7.96847 10.4309L8.30627 10.4335C8.35002 10.4339 8.36813 10.4896 8.33296 10.5157L8.06122 10.7164L8.16316 11.0384C8.17639 11.0801 8.12887 11.1146 8.09327 11.0892L7.81846 10.8927L7.54365 11.0892C7.50805 11.1146 7.46064 11.0801 7.47376 11.0384L7.5757 10.7164L7.30396 10.5157C7.26879 10.4896 7.2869 10.4339 7.33065 10.4335L7.66845 10.4309L7.77531 10.1105C7.78915 10.069 7.84777 10.069 7.86161 10.1105Z" fill="#F5F5F5"/>
<path d="M7.86161 11.7867L7.96847 12.1072L8.30627 12.1097C8.35002 12.1101 8.36813 12.1659 8.33296 12.1919L8.06122 12.3926L8.16316 12.7146C8.17639 12.7563 8.12887 12.7909 8.09327 12.7654L7.81846 12.569L7.54365 12.7654C7.50805 12.7909 7.46064 12.7563 7.47376 12.7146L7.5757 12.3926L7.30396 12.1919C7.26879 12.1659 7.2869 12.1101 7.33065 12.1097L7.66845 12.1072L7.77531 11.7867C7.78915 11.7453 7.84777 11.7453 7.86161 11.7867Z" fill="#F5F5F5"/>
<path d="M9.16288 5.93567L9.26974 6.25614L9.60754 6.25871C9.65129 6.25909 9.66939 6.31487 9.63423 6.34085L9.36249 6.5415L9.46443 6.86355C9.47766 6.90523 9.43014 6.93979 9.39453 6.9143L9.11973 6.71787L8.84492 6.9143C8.80932 6.93979 8.76191 6.90523 8.77503 6.86355L8.87697 6.5415L8.60523 6.34085C8.57006 6.31482 8.58817 6.25904 8.63192 6.25871L8.96972 6.25614L9.07658 5.93567C9.09031 5.89416 9.14904 5.89416 9.16288 5.93567Z" fill="#F5F5F5"/>
<path d="M9.16288 7.61214L9.26974 7.93261L9.60754 7.93518C9.65129 7.93557 9.66939 7.99129 9.63423 8.01732L9.36249 8.21803L9.46443 8.54008C9.47766 8.58175 9.43014 8.61632 9.39453 8.59083L9.11973 8.39439L8.84492 8.59083C8.80932 8.61626 8.76191 8.58175 8.77503 8.54008L8.87697 8.21803L8.60523 8.01732C8.57006 7.99129 8.58817 7.93557 8.63192 7.93518L8.96972 7.93261L9.07658 7.61214C9.09031 7.57069 9.14904 7.57069 9.16288 7.61214Z" fill="#F5F5F5"/>
<path d="M9.16288 9.28846L9.26974 9.60892L9.60754 9.61149C9.65129 9.61188 9.66939 9.6676 9.63423 9.69364L9.36249 9.89434L9.46443 10.2164C9.47766 10.2581 9.43014 10.2926 9.39453 10.2671L9.11973 10.0707L8.84492 10.2671C8.80932 10.2926 8.76191 10.2581 8.77503 10.2164L8.87697 9.89434L8.60523 9.69364C8.57006 9.6676 8.58817 9.61188 8.63192 9.61149L8.96972 9.60892L9.07658 9.28846C9.09031 9.24695 9.14904 9.24695 9.16288 9.28846Z" fill="#F5F5F5"/>
<path d="M9.16288 10.965L9.26974 11.2854L9.60754 11.288C9.65129 11.2884 9.66939 11.3442 9.63423 11.3701L9.36249 11.5709L9.46443 11.8929C9.47766 11.9346 9.43014 11.9691 9.39453 11.9437L9.11973 11.7472L8.84492 11.9437C8.80932 11.9691 8.76191 11.9346 8.77503 11.8929L8.87697 11.5709L8.60523 11.3701C8.57006 11.3442 8.58817 11.2884 8.63192 11.288L8.96972 11.2854L9.07658 10.965C9.09031 10.9235 9.14904 10.9235 9.16288 10.965Z" fill="#F5F5F5"/>
<path d="M9.16288 12.6412L9.26974 12.9617L9.60754 12.9642C9.65129 12.9646 9.66939 13.0203 9.63423 13.0464L9.36249 13.2471L9.46443 13.5691C9.47766 13.6108 9.43014 13.6454 9.39453 13.6199L9.11973 13.4234L8.84492 13.6199C8.80932 13.6453 8.76191 13.6108 8.77503 13.5691L8.87697 13.2471L8.60523 13.0464C8.57006 13.0203 8.58817 12.9646 8.63192 12.9642L8.96972 12.9617L9.07658 12.6412C9.09031 12.5997 9.14904 12.5997 9.16288 12.6412Z" fill="#F5F5F5"/>
<path d="M10.4641 6.75765L10.571 7.07812L10.9088 7.08069C10.9526 7.08107 10.9707 7.13686 10.9355 7.16283L10.6638 7.36354L10.7657 7.68559C10.7789 7.72726 10.7314 7.76183 10.6958 7.73634L10.421 7.5399L10.1462 7.73634C10.1106 7.76177 10.0632 7.72726 10.0763 7.68559L10.1782 7.36354L9.9065 7.16283C9.87133 7.1368 9.88944 7.08107 9.93319 7.08069L10.271 7.07812L10.3778 6.75765C10.3916 6.7162 10.4503 6.7162 10.4641 6.75765Z" fill="#F5F5F5"/>
<path d="M10.4641 8.43396L10.571 8.75443L10.9088 8.757C10.9526 8.75739 10.9707 8.81317 10.9355 8.83914L10.6638 9.03985L10.7657 9.3619C10.7789 9.40357 10.7314 9.43813 10.6958 9.41265L10.421 9.21621L10.1462 9.41265C10.1106 9.43808 10.0632 9.40363 10.0763 9.3619L10.1782 9.03985L9.9065 8.83914C9.87133 8.81322 9.88944 8.75739 9.93319 8.757L10.271 8.75443L10.3778 8.43396C10.3916 8.39246 10.4503 8.39246 10.4641 8.43396Z" fill="#F5F5F5"/>
<path d="M10.4641 10.1105L10.571 10.4309L10.9088 10.4335C10.9526 10.4339 10.9707 10.4896 10.9355 10.5157L10.6638 10.7164L10.7657 11.0384C10.7789 11.0801 10.7314 11.1146 10.6958 11.0892L10.421 10.8927L10.1462 11.0892C10.1106 11.1146 10.0632 11.0801 10.0763 11.0384L10.1782 10.7164L9.9065 10.5157C9.87133 10.4896 9.88944 10.4339 9.93319 10.4335L10.271 10.4309L10.3778 10.1105C10.3916 10.069 10.4503 10.069 10.4641 10.1105Z" fill="#F5F5F5"/>
<path d="M10.4641 11.7867L10.571 12.1072L10.9088 12.1097C10.9526 12.1101 10.9707 12.1659 10.9355 12.1919L10.6638 12.3926L10.7657 12.7146C10.7789 12.7563 10.7314 12.7909 10.6958 12.7654L10.421 12.569L10.1462 12.7654C10.1106 12.7909 10.0632 12.7563 10.0763 12.7146L10.1782 12.3926L9.9065 12.1919C9.87133 12.1659 9.88944 12.1101 9.93319 12.1097L10.271 12.1072L10.3778 11.7867C10.3916 11.7453 10.4503 11.7453 10.4641 11.7867Z" fill="#F5F5F5"/>
<path d="M11.7654 5.93567L11.8723 6.25614L12.2101 6.25871C12.2538 6.25909 12.2719 6.31487 12.2368 6.34085L11.965 6.5415L12.067 6.86355C12.0802 6.90523 12.0327 6.93979 11.9971 6.9143L11.7223 6.71787L11.4475 6.9143C11.4119 6.93979 11.3644 6.90523 11.3776 6.86355L11.4795 6.5415L11.2078 6.34085C11.1726 6.31482 11.1907 6.25904 11.2345 6.25871L11.5723 6.25614L11.6791 5.93567C11.6929 5.89416 11.7515 5.89416 11.7654 5.93567Z" fill="#F5F5F5"/>
<path d="M11.7654 7.61214L11.8723 7.93261L12.2101 7.93518C12.2538 7.93557 12.2719 7.99129 12.2368 8.01732L11.965 8.21803L12.067 8.54008C12.0802 8.58175 12.0327 8.61632 11.9971 8.59083L11.7223 8.39439L11.4475 8.59083C11.4119 8.61626 11.3644 8.58175 11.3776 8.54008L11.4795 8.21803L11.2078 8.01732C11.1726 7.99129 11.1907 7.93557 11.2345 7.93518L11.5723 7.93261L11.6791 7.61214C11.6929 7.57069 11.7515 7.57069 11.7654 7.61214Z" fill="#F5F5F5"/>
<path d="M11.7654 9.28846L11.8723 9.60892L12.2101 9.61149C12.2538 9.61188 12.2719 9.6676 12.2368 9.69364L11.965 9.89434L12.067 10.2164C12.0802 10.2581 12.0327 10.2926 11.9971 10.2671L11.7223 10.0707L11.4475 10.2671C11.4119 10.2926 11.3644 10.2581 11.3776 10.2164L11.4795 9.89434L11.2078 9.69364C11.1726 9.6676 11.1907 9.61188 11.2345 9.61149L11.5723 9.60892L11.6791 9.28846C11.6929 9.24695 11.7515 9.24695 11.7654 9.28846Z" fill="#F5F5F5"/>
<path d="M11.7654 10.965L11.8723 11.2854L12.2101 11.288C12.2538 11.2884 12.2719 11.3442 12.2368 11.3701L11.965 11.5709L12.067 11.8929C12.0802 11.9346 12.0327 11.9691 11.9971 11.9437L11.7223 11.7472L11.4475 11.9437C11.4119 11.9691 11.3644 11.9346 11.3776 11.8929L11.4795 11.5709L11.2078 11.3701C11.1726 11.3442 11.1907 11.2884 11.2345 11.288L11.5723 11.2854L11.6791 10.965C11.6929 10.9235 11.7515 10.9235 11.7654 10.965Z" fill="#F5F5F5"/>
<path d="M11.7654 12.6412L11.8723 12.9617L12.2101 12.9642C12.2538 12.9646 12.2719 13.0203 12.2368 13.0464L11.965 13.2471L12.067 13.5691C12.0802 13.6108 12.0327 13.6454 11.9971 13.6199L11.7223 13.4234L11.4475 13.6199C11.4119 13.6453 11.3644 13.6108 11.3776 13.5691L11.4795 13.2471L11.2078 13.0464C11.1726 13.0203 11.1907 12.9646 11.2345 12.9642L11.5723 12.9617L11.6791 12.6412C11.6929 12.5997 11.7515 12.5997 11.7654 12.6412Z" fill="#F5F5F5"/>
</svg>
